<mxfile host="65bd71144e">
    <diagram id="TyqNLErKjxUjh90aOo6O" name="Page-1">
        <mxGraphModel dx="115" dy="69" grid="1" gridSize="10" guides="1" tooltips="1" connect="1" arrows="1" fold="1" page="1" pageScale="1" pageWidth="850" pageHeight="1100" math="0" shadow="0">
            <root>
                <mxCell id="0"/>
                <mxCell id="1" parent="0"/>
                <mxCell id="3" value="" style="rounded=1;whiteSpace=wrap;html=1;" vertex="1" parent="1">
                    <mxGeometry x="130" y="70" width="180" height="80" as="geometry"/>
                </mxCell>
                <mxCell id="4" value="&lt;font style=&quot;font-size: 17px;&quot;&gt;&amp;nbsp;X = 20&amp;nbsp;&lt;/font&gt;" style="text;strokeColor=none;align=center;fillColor=none;html=1;verticalAlign=middle;whiteSpace=wrap;rounded=0;" vertex="1" parent="1">
                    <mxGeometry x="180" y="20" width="80" height="45" as="geometry"/>
                </mxCell>
                <mxCell id="6" value="" style="edgeStyle=isometricEdgeStyle;endArrow=none;html=1;elbow=vertical;fontSize=17;entryX=0.75;entryY=0.222;entryDx=0;entryDy=0;entryPerimeter=0;" edge="1" parent="1" target="4">
                    <mxGeometry width="50" height="100" relative="1" as="geometry">
                        <mxPoint x="195" y="30" as="sourcePoint"/>
                        <mxPoint x="240" y="-30" as="targetPoint"/>
                        <Array as="points">
                            <mxPoint x="220" y="10"/>
                            <mxPoint x="220" y="10"/>
                        </Array>
                    </mxGeometry>
                </mxCell>
            </root>
        </mxGraphModel>
    </diagram>
</mxfile>